<?xml version="1.0" encoding="utf-8"?>
<!-- Generator: Adobe Illustrator 25.0.0, SVG Export Plug-In . SVG Version: 6.00 Build 0)  -->
<svg version="1.1" id="Layer_1" xmlns="http://www.w3.org/2000/svg" xmlns:xlink="http://www.w3.org/1999/xlink" x="0px" y="0px"
	 viewBox="0 0 798 191.3" style="enable-background:new 0 0 798 191.3;" xml:space="preserve">
<style type="text/css">
	.st0{fill:#50BD90;stroke:#50BD90;stroke-width:2;stroke-miterlimit:10;}
	.st1{fill:#010101;}
	.st2{fill:#50BD90;}
</style>
<path class="st0" d="M44.3,20c3.2,1.7,5.8,4.1,7.6,7.2c1.8,3.1,2.7,6.6,2.7,10.5c0,0.8-0.1,2-0.3,3.6c-0.6,4.2-1.9,7.4-4,9.8
	c-2.1,2.4-4.6,3.5-7.7,3.5c-1.6,0-3.1-0.3-4.3-1c-1.2-0.7-2.1-1.6-2.7-2.9c-0.1-0.2-0.2-0.2-0.4,0c-0.8,1.3-1.9,2.2-3.2,2.9
	c-1.3,0.7-2.8,1-4.5,1c-2.4,0-4.4-0.6-5.9-1.9c-1.5-1.2-2.4-2.8-2.6-4.8c-0.1-0.3-0.1-0.8-0.1-1.4c0-1.3,0.1-2.8,0.4-4.7
	c0.3-2.7,0.7-4.8,1.3-6.2c0.7-2,1.9-3.6,3.6-4.8c1.7-1.2,3.6-1.8,5.8-1.8c2.8,0,4.9,0.9,6.3,2.8c0.1,0.1,0.2,0.1,0.2,0.1
	s0.1-0.1,0.1-0.2l0.2-1.8c0.1-0.4,0.3-0.6,0.7-0.6H39c0.2,0,0.4,0.1,0.6,0.2s0.2,0.3,0.1,0.5l-2,15c-0.1,0.2-0.1,0.6-0.1,1
	c0,1.7,0.5,3.1,1.4,4.1s2.2,1.6,3.8,1.6c2.1,0,3.8-0.9,5.3-2.8s2.5-4.5,3-7.8c0.2-1.1,0.3-2.3,0.3-3.6c0-3.6-0.8-6.8-2.4-9.5
	c-1.6-2.7-3.8-4.8-6.7-6.2c-2.9-1.5-6.1-2.2-9.7-2.2c-4,0-7.8,0.9-11.4,2.7c-3.6,1.8-6.6,4.5-9,8.2s-3.5,8.1-3.5,13.4
	c0,3.8,0.7,7.1,2.1,10c1.4,3,3.5,5.3,6.2,7s6.1,2.5,9.9,2.5c2.3,0,4.6-0.3,6.9-0.8c2.2-0.6,3.9-1.2,5.1-2c0.1-0.1,0.3-0.1,0.5-0.1
	s0.4,0.1,0.5,0.3l0.7,0.8c0.1,0.1,0.1,0.2,0.1,0.4c0,0.2-0.1,0.4-0.3,0.6c-1.4,1.1-3.5,2-6,2.7c-2.6,0.7-5.2,1-7.8,1
	c-4.3,0-8-1-11.2-2.9c-3.1-1.9-5.5-4.6-7.2-8S6,48.3,6,43.9c0-5.6,1.3-10.4,3.9-14.4c2.6-4,6-7,10.1-9.1c4.1-2,8.5-3.1,13-3.1
	C37.3,17.4,41,18.3,44.3,20z M31.9,50.7c1.2-1,2-2.2,2.5-3.6c0.3-0.7,0.5-1.7,0.6-2.9l0.5-3.9c0.1-1.1,0.2-2.3,0.2-3.6
	c-0.1-1.5-0.6-2.6-1.6-3.6c-1-0.9-2.3-1.4-3.9-1.4s-3.1,0.5-4.3,1.4c-1.2,0.9-2.1,2.1-2.7,3.5c-0.2,0.5-0.4,1.1-0.6,1.8
	c-0.1,0.7-0.3,1.9-0.5,3.5c-0.3,2.5-0.4,4.2-0.4,5.1c0.1,1.5,0.7,2.7,1.7,3.6c1.1,0.9,2.4,1.4,4.2,1.4
	C29.3,52.2,30.7,51.7,31.9,50.7z"/>
<path class="st1" d="M64.8,142.9c-5.5-2.2-9.8-5.2-12.9-9c-3-3.8-4.6-8-4.6-12.7v-2c0-1.2,0.6-1.8,1.8-1.8h13.1
	c1.2,0,1.8,0.6,1.8,1.8v0.9c0,3.4,1.9,6.4,5.6,8.9c3.7,2.5,8.4,3.8,14.1,3.8c5.5,0,9.9-1.2,13.3-3.5c3.4-2.4,5.1-5.4,5.1-9
	c0-3.5-1.6-6.2-4.7-7.9c-3.2-1.8-8.3-3.6-15.3-5.6c-6.9-1.9-12.7-3.9-17.4-5.9c-4.7-2-8.6-4.9-11.8-8.6c-3.2-3.7-4.8-8.5-4.8-14.3
	c0-8.1,3.2-14.6,9.6-19.4c6.4-4.8,14.9-7.2,25.4-7.2c7,0,13.3,1.1,18.7,3.4c5.4,2.2,9.6,5.4,12.5,9.4c2.9,4,4.4,8.5,4.4,13.5v0.5
	c0,1.2-0.6,1.8-1.8,1.8h-12.8c-1.2,0-1.8-0.6-1.8-1.8v-0.5c0-3.5-1.7-6.5-5.2-8.8s-8.2-3.5-14.1-3.5c-5.4,0-9.7,1-13,3.1
	s-5,4.9-5,8.4c0,3.5,1.6,6.2,4.8,8c3.2,1.8,8.4,3.8,15.6,5.8c7,1.9,12.9,3.9,17.6,5.7c4.7,1.9,8.7,4.7,11.9,8.4
	c3.3,3.7,4.9,8.5,4.9,14.5c0,8.3-3.2,14.8-9.8,19.7s-15.2,7.3-26,7.3C76.7,146.1,70.3,145,64.8,142.9z"/>
<path class="st1" d="M196.4,59.7c5.8,5.8,8.8,13.6,8.8,23.4v60.1c0,1-0.8,1.8-1.8,1.8h-13.9c-1,0-1.8-0.8-1.8-1.8V86.6
	c0-6.1-1.8-11-5.3-14.8c-3.5-3.8-8.2-5.6-14-5.6c-5.7,0-10.4,1.9-14,5.6c-3.6,3.8-5.5,8.6-5.5,14.6v56.8c0,1-0.8,1.8-1.8,1.8h-13.9
	c-1,0-1.8-0.8-1.8-1.8V19.3c0-1,0.8-1.8,1.8-1.8H147c1,0,1.8,0.8,1.8,1.8v41.4c0,0.2,0.1,0.4,0.3,0.5s0.3,0.1,0.5-0.2
	c5.2-6.7,12.9-10,23.1-10C182.7,51,190.6,53.9,196.4,59.7z"/>
<path class="st1" d="M221.7,143V54.1c0-1.2,0.6-1.8,1.8-1.8h13.9c1.2,0,1.8,0.6,1.8,1.8V143c0,1.2-0.6,1.8-1.8,1.8h-13.9
	C222.3,144.9,221.7,144.3,221.7,143z"/>
<path class="st1" d="M333.5,103.9c0,1.2-0.6,1.8-1.8,1.8h-58.1c-0.5,0-0.7,0.2-0.7,0.7c0,4.1,0.4,7.3,1.1,9.5
	c1.3,4.9,4,8.7,8.1,11.4c4.1,2.7,9.2,4.1,15.4,4.1c9,0,15.9-3.7,20.8-11.1c0.6-1.2,1.4-1.4,2.4-0.5l10.4,6.9c0.8,0.7,1,1.5,0.5,2.4
	c-3.4,5.5-8.2,9.8-14.5,12.9s-13.3,4.7-21.2,4.7c-8.9,0-16.3-1.9-22.4-5.8c-6.1-3.9-10.6-9.4-13.7-16.6c-2.9-7.2-4.4-15.8-4.4-26.1
	c0-8.9,0.7-15.6,2-20.2c2.2-8.4,6.6-15,13.1-19.9c6.6-4.9,14.5-7.3,23.9-7.3c12.3,0,21.4,3.1,27.5,9.2s9.8,15.2,11.1,27.1
	C333.5,92.1,333.7,97.7,333.5,103.9z M281.4,69.9c-3.4,2.6-5.7,6.1-6.9,10.5c-0.9,2.7-1.4,6.1-1.6,10.2c0,0.5,0.2,0.7,0.7,0.7h41.7
	c0.5,0,0.7-0.2,0.7-0.7c-0.2-4-0.6-7-1.1-8.9c-1.2-4.7-3.6-8.5-7.2-11.4c-3.6-2.9-8-4.3-13.4-4.3C289.1,66,284.8,67.3,281.4,69.9z"
	/>
<path class="st1" d="M351.8,143.2V19.3c0-1.2,0.6-1.8,1.8-1.8h13.8c1.2,0,1.8,0.6,1.8,1.8v123.9c0,1.2-0.6,1.8-1.8,1.8h-13.8
	C352.4,145,351.8,144.4,351.8,143.2z"/>
<path class="st1" d="M448.2,17.5H462c1.2,0,1.8,0.6,1.8,1.8v123.9c0,1.2-0.6,1.8-1.8,1.8h-13.8c-1.2,0-1.8-0.6-1.8-1.8v-6
	c0-0.2-0.1-0.4-0.3-0.5c-0.2-0.1-0.4-0.1-0.6,0.2c-2.7,3-5.8,5.4-9.5,7.1c-3.6,1.7-7.6,2.5-11.8,2.5c-8.8,0-16-2.2-21.8-6.5
	s-10-10.4-12.7-18.3c-2.3-6.4-3.5-14.2-3.5-23.3c0-8.5,1-15.9,2.9-22c2.5-8,6.7-14.3,12.6-18.8c5.8-4.5,13.3-6.7,22.4-6.7
	c4.1,0,8,0.8,11.8,2.5c3.7,1.6,6.9,4,9.6,7c0.2,0.2,0.5,0.3,0.6,0.2s0.3-0.3,0.3-0.5V19.3C446.3,18.1,446.9,17.5,448.2,17.5z
	 M446,98.6c0-10.2-1.5-18-4.6-23.3c-3.5-6.2-8.7-9.3-15.5-9.3c-7.3,0-12.7,2.9-16.2,8.8c-3.9,6.1-5.8,14.1-5.8,24.1
	c0,9.4,1.5,16.9,4.6,22.6c3.5,6.7,9.3,10,17.3,10c7,0,12.4-3.3,16-9.8C444.6,116.4,446,108.8,446,98.6z"/>
<path class="st2" d="M545.5,53.2h6c1.2,0,1.8,0.6,1.8,1.8v88c0,13.7-4.1,23.7-12.4,29.9c-8.3,6.2-19.9,9-35,8.4
	c-1.2-0.1-1.8-0.8-1.8-2l0.2-5.3c0-1.2,0.6-1.8,1.8-1.8c13,0.5,22.5-1.7,28.5-6.5s9-12.4,9-22.9v-9.1c0-0.4-0.1-0.6-0.3-0.6
	s-0.4,0-0.6,0.3c-5.5,8.4-13.8,12.6-25,12.6c-7.9,0-14.8-2.2-20.8-6.5s-9.9-10.2-11.8-17.8c-1.3-5-2-12.5-2-22.4
	c0-10.7,0.7-18.5,2.2-23.5c1.9-7.2,5.8-13,11.5-17.4c5.7-4.4,12.6-6.6,20.6-6.6c11.2,0,19.6,4.1,25.3,12.4c0.1,0.2,0.3,0.3,0.5,0.2
	c0.2-0.1,0.4-0.3,0.4-0.5V55C543.7,53.8,544.3,53.2,545.5,53.2z M543.5,111.5c0.1-2.7,0.2-6.8,0.2-12.4c0-5.6-0.1-9.7-0.2-12.4
	s-0.4-5-0.7-7.1c-1-5.6-3.5-10.2-7.7-13.9s-9.5-5.5-15.8-5.5c-6.3,0-11.6,1.8-16,5.5s-7.3,8.3-8.8,13.9c-1.1,3.6-1.6,10.1-1.6,19.3
	c0,9,0.5,15.4,1.6,19.3c1.3,5.6,4.2,10.2,8.7,13.8c4.4,3.7,9.8,5.5,16.1,5.5c6.6,0,11.9-1.8,16-5.5c4.1-3.7,6.6-8.3,7.6-13.8
	C543.1,116.4,543.4,114.2,543.5,111.5z"/>
<path class="st2" d="M633.7,60c5.6,5.5,8.4,13,8.4,22.3v60.9c0,1.2-0.6,1.8-1.8,1.8h-6c-1.2,0-1.8-0.6-1.8-1.8v-8.6
	c0-0.2-0.1-0.4-0.3-0.5c-0.2-0.1-0.4-0.1-0.6,0.2c-3.2,4-7.3,7-12.3,9.1c-5,2.1-10.7,3.1-16.9,3.1c-8.4,0-15.5-2.1-21.3-6.4
	s-8.8-10.8-8.8-19.5c0-9,3.3-16.1,10-21.3c6.7-5.2,15.9-7.8,27.5-7.8h21.9c0.5,0,0.7-0.2,0.7-0.7v-8.2c0-6.8-1.9-12.2-5.7-16.2
	s-9.7-6-17.6-6c-6.2,0-11.3,1.3-15.3,3.8s-6.5,6-7.5,10.2c-0.4,1.2-1.1,1.8-2.2,1.6l-6.4-0.9c-1.3-0.2-1.9-0.7-1.6-1.5
	c1.1-6.6,4.7-11.8,10.7-15.9c6-4,13.5-6,22.5-6C620,51.7,628.1,54.5,633.7,60z M623.9,132.5c5.7-3.8,8.5-9,8.5-15.7v-16.6
	c0-0.5-0.2-0.7-0.7-0.7h-21c-8.6,0-15.6,1.8-20.9,5.5c-5.3,3.7-7.9,8.7-7.9,15.1c0,6,2.1,10.5,6.2,13.5s9.4,4.6,15.8,4.6
	C611.6,138.1,618.3,136.2,623.9,132.5z"/>
<path class="st2" d="M702.4,61.4h-21.3c-0.5,0-0.7,0.2-0.7,0.7v57.6c0,6.2,1.4,10.5,4.2,13c2.8,2.5,7.3,3.7,13.5,3.7h4.2
	c1.2,0,1.8,0.6,1.8,1.8v4.9c0,1.2-0.6,1.8-1.8,1.8l-5.5,0.2c-8.5,0-14.9-1.6-19.2-4.9c-4.3-3.3-6.5-9.3-6.7-18V62.1
	c0-0.5-0.2-0.7-0.7-0.7h-10.9c-1.2,0-1.8-0.6-1.8-1.8V55c0-1.2,0.6-1.8,1.8-1.8h10.9c0.5,0,0.7-0.2,0.7-0.7V31.7
	c0-1.2,0.6-1.8,1.8-1.8h5.8c1.2,0,1.8,0.6,1.8,1.8v20.8c0,0.5,0.2,0.7,0.7,0.7h21.3c1.2,0,1.8,0.6,1.8,1.8v4.6
	C704.2,60.8,703.6,61.4,702.4,61.4z"/>
<path class="st2" d="M772.6,134c4.1-2.6,7.3-6.2,9.6-10.8c0.6-1.1,1.4-1.4,2.4-0.9l4.7,2.4c1.1,0.6,1.4,1.4,0.9,2.4
	c-2.7,6-6.9,10.7-12.7,14.2c-5.8,3.5-12.5,5.3-20.3,5.3c-8.5,0-15.7-2.1-21.7-6.2c-6-4.1-10-9.8-12.2-17c-1-3-1.6-6.4-2-10.2
	c-0.4-3.8-0.5-8.5-0.5-14.2c0-6,0.1-10.5,0.3-13.5c0.2-3,0.6-5.8,1.2-8.4c1.9-7.6,5.9-13.8,11.9-18.4c6-4.6,13.4-6.9,22.1-6.9
	c10,0,17.9,2.6,23.9,7.8c6,5.2,9.7,12.3,11.1,21.4c0.4,2.3,0.6,5,0.7,8.1c0.1,3.1,0.2,7,0.2,11.6c0,1.2-0.6,1.8-1.8,1.8H731
	c-0.5,0-0.7,0.2-0.7,0.7c0,7.8,0.3,12.9,0.9,15.5c1.3,6,4.3,10.7,9,14.1s10.6,5.2,17.8,5.2C763.7,137.9,768.6,136.6,772.6,134z
	 M730.3,93.5c0,0.5,0.2,0.7,0.7,0.7h50.8c0.5,0,0.7-0.2,0.7-0.7c0-6.1-0.3-10.6-0.9-13.7c-1.3-5.8-4.3-10.5-8.8-14.1
	c-4.5-3.6-10-5.4-16.6-5.4s-12,1.7-16.4,5.2s-7.2,8-8.4,13.8C730.9,81.6,730.5,86.3,730.3,93.5z"/>
<path class="st1" d="M646.2,162.3h7.3c4.1,0,5.8,2,5.8,4.7c0,2.5-1.4,4-3.5,4.6c1.8,0.4,3.1,1.7,3.1,4c0,3.5-2.7,5.9-6.9,5.9h-8.6
	L646.2,162.3z M651.2,177.7c1.7,0,2.7-1,2.7-2.5c0-1.3-0.7-2-2.4-2h-1.8l-0.7,4.5L651.2,177.7L651.2,177.7z M652.1,169.9
	c1.7,0,2.5-0.8,2.5-2.2c0-1.2-0.7-1.7-2-1.7h-1.8l-0.6,4L652.1,169.9L652.1,169.9z"/>
<path class="st1" d="M666.1,173.2l-4.2-10.9h5.4l2.2,6.4l4-6.4h5.2l-7.3,11.2l-1.2,7.9h-5.2L666.1,173.2z"/>
<path class="st1" d="M696.1,177.8h-6l-1.5,3.6h-4.9l8.6-19.1h6.7l2.9,19.1h-5.3L696.1,177.8z M691.6,174.1h4l-0.9-7.4L691.6,174.1z"
	/>
<path class="st1" d="M707.9,162.3h12.2l-0.7,4.2h-7l-0.6,4.1h5.6l-0.6,4h-5.6l-1,6.8H705L707.9,162.3z"/>
<path class="st1" d="M723.9,162.3h5.2l-2.8,19.1h-5.2L723.9,162.3z"/>
<path class="st1" d="M734,162.3h6.9c4.4,0,6.6,2.1,6.6,5.4c0,3.2-1.7,5.1-4.2,5.8l3.4,7.9h-5.2l-3-6.8h-1.2l-1,6.8h-5.2L734,162.3z
	 M739.7,171c1.7,0,2.8-0.8,2.8-2.6c0-1.3-0.8-2-2.2-2h-1.6l-0.7,4.6H739.7z"/>
<path class="st1" d="M752.8,162.3h6.5l1.9,10.1l5-10.1h6.8l-2.8,19.1h-5.2l1.8-12l-6.2,12h-1.7l-2.6-12l-1.8,12H750L752.8,162.3z"/>
<path class="st1" d="M777.8,162.3h12.4l-0.6,4.2h-7.3l-0.5,3.3h5.8l-0.5,3.8h-5.8l-0.5,3.5h7.7l-0.6,4.2H775L777.8,162.3z"/>
</svg>
